<?xml version="1.0" encoding="UTF-8"?>
<svg width="500px" height="500px" viewBox="0 0 500 500" version="1.1" xmlns="http://www.w3.org/2000/svg" xmlns:xlink="http://www.w3.org/1999/xlink">
    <!-- Generator: Sketch 62 (91390) - https://sketch.com -->
    <title>illustration-pki-validationauthority</title>
    <desc>Created with Sketch.</desc>
    <defs>
        <rect id="path-1" x="0" y="0" width="500" height="500"></rect>
        <linearGradient x1="50%" y1="-3.42881944%" x2="50%" y2="83.1706801%" id="linearGradient-3">
            <stop stop-color="#AD1AAC" stop-opacity="0.320476399" offset="0%"></stop>
            <stop stop-color="#FFFFFF" stop-opacity="0.59" offset="99.9656883%"></stop>
        </linearGradient>
    </defs>
    <g id="PKI" stroke="none" stroke-width="1" fill="none" fill-rule="evenodd">
        <g id="Validation-Authority" transform="translate(-68.000000, -837.000000)">
            <g id="illustration-pki-validationauthority" transform="translate(68.000000, 837.000000)">
                <mask id="mask-2" fill="white">
                    <use xlink:href="#path-1"></use>
                </mask>
                <use id="Rectangle" fill="#FFFFFF" xlink:href="#path-1"></use>
                <polygon id="Polygon" fill-opacity="0.32" fill="url(#linearGradient-3)" points="250 16 452.649944 133 452.649944 367 250 484 47.3500555 367 47.3500555 133"></polygon>
                <g id="Cards" opacity="0.5" transform="translate(122.000000, 122.000000)" fill="#D9B6E0">
                    <path d="M44.4072139,0.289358541 C37.6678262,0.365066047 30.9317766,0.613713248 24.2057416,1.03938241 C17.8094432,1.44464024 10.8693945,1.13698572 4.57732112,2.37688168 C2.7906601,2.72869892 0.377165546,4.35715253 2.75282754,6.1481546 C4.42265273,7.40734856 10.5318688,5.95888584 12.525867,5.83641781 C19.869092,5.3851417 27.2160261,4.84442682 34.5696366,4.58464616 C41.5311978,4.33859676 48.4923882,4.2517558 55.4572877,4.18235725 C56.5206792,4.17196603 58.2858276,3.83091114 59.3447683,4.139679 C60.8662305,4.58353281 60.5053376,4.70414526 60.6192062,6.63542889 C60.8258016,10.1346744 60.7686819,13.6465377 60.6993222,17.1491232 C60.6321879,20.5385186 60.5068212,23.9275428 60.5190612,27.3184226 C60.527592,29.7377228 59.7542501,34.5451494 60.96823,36.6460327 C62.7155749,39.6702507 64.5281994,36.3855098 64.6587588,34.3759209 C64.9087504,30.5322805 64.7967364,26.6415085 64.7978491,22.7930436 C64.7985909,19.180608 64.8245544,15.5681724 64.6973332,11.9575923 C64.6049773,9.34939454 64.9777392,4.79655295 63.5727419,2.42549778 C62.1417811,0.010651007 58.6964221,0.531325668 56.1824117,0.416279948 C52.2608076,0.235917949 48.3321562,0.248535866 44.4072139,0.289358541" id="Fill-173"></path>
                    <path d="M1.52768731,4.64832243 C1.53510546,11.4356488 0.749894462,18.1776991 0.529946365,24.957232 C0.429092584,28.0742288 0.224318654,31.4970245 1.01286782,34.5568696 C1.80883513,37.6464038 4.33694008,38.3158957 4.6281024,34.8667508 C5.21784519,27.8823622 5.0731913,20.6400486 5.53237468,13.5996217 C5.69446122,11.1138919 6.74932191,6.5584525 5.76456272,4.2308178 C4.89738118,2.18040618 1.52397824,1.78739516 1.52768731,4.64832243" id="Fill-171"></path>
                    <path d="M64.7247433,34.5660432 C53.0207598,36.1154493 40.7852659,35.5506119 28.9978283,35.7940635 C23.3426029,35.9109648 17.6884903,35.9183871 12.0325231,35.9773944 C10.0585538,35.9978057 5.0457401,35.2470396 3.33808235,36.3566742 C0.619701905,38.1231826 3.56915767,39.4862889 5.36880045,39.525256 C16.5305173,39.7698209 27.8164882,39.2565685 38.9759796,38.8902778 C43.989906,38.7258738 49.0201524,38.6453418 54.0207262,38.2193015 C57.0992577,37.956923 60.463388,37.7027091 63.4529017,36.8754933 C64.0897498,36.6988424 65.4765726,36.7355828 65.6193719,35.8668021 C65.707277,35.3294272 65.5477868,34.4524819 64.7247433,34.5660432" id="Fill-175"></path>
                    <path d="M16.0561638,44.4321415 C12.8033058,44.4510683 3.0009646,42.9402583 1.65382887,46.1121801 C-0.142104836,50.3425225 6.86396534,49.3549849 8.74817501,49.30674 C13.0277048,49.1968898 17.3042673,49.1850142 21.5849098,49.1868697 C25.7850653,49.1887253 29.98485,49.1616339 34.1842638,49.0618039 C35.4008401,49.0324858 38.2327182,49.5375736 38.9326205,48.0724107 C39.4645017,46.959065 39.0442636,46.0806353 38.0632135,45.4913043 C35.7027587,44.0725308 29.5705464,44.8952933 26.8069153,44.7676296 C23.2287714,44.6028545 19.6387585,44.4321415 16.0561638,44.4321415" id="Fill-177"></path>
                    <path d="M55.6293516,45.215343 C53.7703637,45.3259354 50.0101043,44.5595824 48.34473,45.4101785 C46.4519894,46.3773048 47.118881,47.8914549 48.753099,48.5568645 C49.8847376,49.0174185 54.5270148,48.7758225 55.6293516,48.2421588 C56.7784228,47.685486 58.0777115,45.0646703 55.6293516,45.215343" id="Fill-179"></path>
                    <path d="M76.0102319,5.3142958 C74.0247645,5.85909295 74.6271182,17.1309757 74.5759329,18.9178955 C74.4357299,23.8136476 73.8853033,29.9711914 75.5121033,34.6862103 C76.5495313,37.6918725 78.5420459,37.284388 78.2026657,34.1198885 C77.9044561,31.3424621 77.3929748,28.5969517 77.171543,25.8013407 C76.670818,19.4756817 75.9894611,12.7284358 76.4623681,6.39758115 C76.6637708,6.76535633 78.5472386,10.1773897 78.990473,9.92280467 C78.8565754,10.0022233 76.8180683,5.10127566 76.0102319,5.3142958" id="Fill-181"></path>
                    <path d="M98.344014,1.16277822 C94.3259739,1.22215666 90.3079339,1.29341078 86.2910066,1.40474535 C83.0971228,1.49381301 78.0783746,0.969056076 75.1493187,2.31249319 C71.6616763,3.91199981 73.3162943,7.47619044 76.5921486,7.55152683 C79.4900482,7.61832757 82.5804488,6.96479366 85.5046829,6.86459255 C93.4031563,6.59404955 101.315724,6.53652669 109.217907,6.46898372 C116.364551,6.40737859 123.814968,7.16964926 130.898929,6.09638403 C131.949709,15.4265919 129.107817,24.796138 130.074402,34.2335982 C130.224248,35.69839 130.157114,37.7680996 132.022407,38.1017322 C134.376557,38.522948 134.473363,36.191231 134.562752,34.5215836 C134.817566,29.7542374 134.679588,24.9831801 135.028612,20.2095249 C135.352043,15.7858314 135.988891,11.2645347 135.450705,6.83378998 C134.789006,1.38136509 132.176334,1.81853883 127.557795,1.59178742 C117.803301,1.1134199 108.109264,1.01952775 98.344014,1.16277822" id="Fill-183"></path>
                    <path d="M84.8781461,34.2931622 C82.8307371,34.3447472 79.4302579,33.7138513 78.1183584,35.6770509 C76.7534191,37.7196691 78.3728009,39.5013932 80.3575265,39.9207535 C82.706854,40.4169345 85.7701784,39.7366803 88.2085237,39.729258 C90.7477559,39.7218357 93.2877299,39.7500405 95.8269621,39.7600606 C106.713466,39.8027388 117.646703,39.967514 128.525418,39.5173512 C130.044655,39.4546327 134.356453,39.9641739 135.407976,38.5068044 C136.341179,37.2142101 135.688382,36.0548462 134.459566,35.3964877 C132.443313,34.3161713 128.302132,34.7269959 126.059625,34.6412683 C123.29006,34.5358715 120.517156,34.5013578 117.746107,34.4583085 C106.808789,34.289451 95.8143512,34.0226192 84.8781461,34.2931622" id="Fill-185"></path>
                    <path d="M94.0872579,43.7363004 C90.0132109,43.805699 85.6665469,43.6268214 81.6329287,44.2447283 C78.086312,44.788041 77.649754,48.2164034 81.467504,48.617579 C84.9759172,48.9864675 89.2294835,48.2973065 92.7549585,48.0709263 C94.0071419,47.9903942 95.4633244,48.1046977 96.0634526,46.7204379 C96.6899152,45.2742019 95.4922552,43.8873443 94.0872579,43.7363004" id="Fill-187"></path>
                    <path d="M124.886705,44.0961709 C122.712075,44.1503537 116.360656,43.2155144 115.283541,45.6990175 C113.490575,49.8339834 122.08895,48.2630526 123.738376,48.2021897 C125.817312,48.12574 133.919784,49.3396579 133.921639,46.0300523 C133.923493,42.7846496 126.877736,44.0468125 124.886705,44.0961709" id="Fill-189"></path>
                    <path d="M1.17606303,64.6430766 C1.18125573,72.1652111 0.713170574,79.7578575 1.39934929,87.260694 C1.68309347,90.3639596 1.63450459,96.3084832 3.43192193,98.9393191 C4.70784344,100.806771 6.47744272,100.675767 7.17437775,98.433489 C7.64023747,96.9345546 6.89508447,93.9366858 6.81200121,92.3330969 C6.73188521,90.7940821 6.63841654,89.2558095 6.56720231,87.7164235 C6.38434496,83.7506862 6.39881035,79.7908868 6.45333374,75.8229228 C6.50006807,72.4194251 7.31940255,67.9163129 6.54680241,64.6430766 C5.82650021,61.5925095 1.17606303,60.879226 1.17606303,64.6430766" id="Fill-191"></path>
                    <path d="M76.773411,58.0256839 C63.7230336,58.3530076 50.6433545,58.0605688 37.6044752,58.7066804 C31.1740534,59.0250972 24.7688532,59.7246494 18.3707003,60.421975 C15.2272599,60.7648854 12.0856741,61.1181871 8.94779738,61.5048892 C8.00087075,61.6214194 0.132440833,61.9264761 3.0919111,64.9187781 C4.38415254,66.2254748 8.49640305,64.8605131 10.1235739,64.6679042 C13.2740615,64.2960468 16.4308545,63.9716921 19.585793,63.6380595 C25.5893004,63.0030813 31.600226,62.4015036 37.629326,62.067871 C51.8287746,61.2811067 66.0868266,61.517136 80.3003696,60.9927502 C84.1451959,60.8509842 87.978524,60.7492986 91.8248339,60.9007136 C92.8348148,60.9404229 100.256672,61.317476 97.0342286,58.5764189 C95.5105409,57.2797423 89.765556,57.9488631 87.8613173,57.909896 C84.1655958,57.8334463 80.4676489,57.9329051 76.773411,58.0256839" id="Fill-193"></path>
                    <path d="M94.2769029,60.27557 C94.1103654,56.6186006 99.091652,56.0645255 100.568976,59.0245406 C102.061137,62.0146159 101.091585,67.9472639 101.188021,71.2624362 C101.411307,78.9378413 102.834479,87.5302721 101.331191,95.1214341 C100.808155,97.7621952 98.5801566,99.1497957 97.0979378,97.7091092 L97.0929062,97.7192407 C96.3818766,98.7672701 93.7543685,98.4755735 92.6038137,98.5538788 C89.1020768,98.7917637 85.6652487,99.1933103 82.194668,99.7136139 C75.2794701,100.750139 68.4243593,101.387344 61.4342381,101.560283 C47.609406,101.90208 33.7274542,101.58255 19.9233929,102.529636 C16.8660031,102.739687 13.8549767,103.099669 10.8476593,103.675269 C8.70010541,104.086836 4.56152046,105.494847 4.31041614,101.946985 C4.00738479,97.6717379 14.7340272,97.6791602 17.8010607,97.3937726 C30.9701285,96.1687212 44.3558062,96.4270174 57.5653029,96.6110906 C63.9530704,96.6997871 70.3289689,96.8949937 76.7115437,96.5045805 C83.088184,96.1145384 89.6810633,96.2169662 96.0109692,95.5311453 C96.0119888,95.531032 96.0130078,95.5309202 96.0140263,95.5308098 C95.1948767,92.3718828 95.314259,88.418404 95.085481,85.188164 C94.4979637,76.8963365 94.6552284,68.5759331 94.2769029,60.27557 Z" id="Wireframy-Stuff"></path>
                    <path d="M105.126279,62.9542055 C103.363356,63.1939459 101.892708,64.7029004 102.679773,66.6167416 C103.671209,69.0263928 106.624003,68.0848735 108.574605,67.9323451 C114.774693,67.4465553 121.24814,68.4166505 127.373305,67.6848112 C129.046098,67.4847801 131.472945,66.5736923 129.971141,64.3258473 C128.842099,62.6365308 124.728736,62.9330519 122.980278,62.7712457 C117.000138,62.2179129 111.09863,62.3656167 105.126279,62.9542055" id="Fill-199"></path>
                    <path d="M115.590652,73.4671947 C113.18606,73.6290009 107.588696,73.5017084 106.575377,76.2375698 C104.75793,81.1455687 111.877127,79.4161717 114.04471,79.1370931 C116.562801,78.8127384 122.498803,79.681148 123.839633,77.2392098 C126.237179,72.8726681 117.699261,73.3217175 115.590652,73.4671947" id="Fill-201"></path>
                    <path d="M109.407292,84.2382203 C108.266752,85.3793996 108.264897,87.4171933 109.407292,88.5583727 C110.805984,89.9556215 113.853359,89.6654094 115.691205,89.7674661 C118.254547,89.9107165 125.616688,91.2664005 126.889642,88.2481203 C128.606943,84.1755018 121.940254,84.2608583 119.747449,84.0296536 C117.213039,83.7628217 111.507741,82.1365948 109.407292,84.2382203" id="Fill-203"></path>
                    <path d="M19.5497408,14.5269344 C19.5497408,18.9053518 26.3881608,18.9053518 26.3881608,14.5269344 C26.3881608,10.1722683 19.5497408,10.1058387 19.5497408,14.5269344" id="Fill-205"></path>
                    <path d="M32.5209665,14.5765896 C32.5209665,19.5821918 40.3100223,19.5721716 40.3100223,14.5765896 C40.3100223,9.58842985 32.5209665,9.53758707 32.5209665,14.5765896" id="Fill-207"></path>
                    <path d="M24.6739751,21.2320216 C20.8877522,22.2774532 24.3757655,25.4861154 26.1338667,26.219068 C28.9279122,27.3843698 32.7412114,28.2431304 35.5359987,26.4962911 C36.6479792,25.8011923 37.5507678,24.8774865 36.7358842,23.5284826 C35.86759,22.0922667 34.6788317,22.730956 33.3569177,22.8634441 C31.6822707,23.0319304 30.3288295,23.0059524 28.7116732,22.4689486 C27.5047405,22.0681442 25.9903255,20.8698131 24.6739751,21.2320216" id="Fill-209"></path>
                    <path d="M93.351971,14.8041575 C93.351971,17.765657 97.9504812,17.765657 97.9504812,14.8041575 C97.9504812,11.842658 93.351971,11.842658 93.351971,14.8041575" id="Fill-211"></path>
                    <path d="M103.521696,15.2499411 C103.521696,18.5402487 108.630204,18.5406198 108.630204,15.2499411 C108.630204,11.9592624 103.521696,11.9596335 103.521696,15.2499411" id="Fill-213"></path>
                    <path d="M103.143333,22.3906433 C100.459818,22.7365227 92.6985805,23.523287 92.264248,26.831037 C91.5943892,31.9342425 100.098554,27.8041011 102.039513,27.4032967 C104.511611,26.8930132 106.719252,27.0262436 109.18727,27.1253314 C110.542194,27.1795142 112.344434,27.3992144 112.202376,25.3350715 C111.969446,21.9456762 105.488952,22.09004 103.143333,22.3906433" id="Fill-215"></path>
                    <path d="M35.6733458,69.4516166 C33.7283073,69.9704357 31.1838824,73.3331108 32.5221164,75.3909447 C34.7164046,78.7662377 35.6841021,73.5839846 36.6024688,73.0852058 C38.2734067,72.1774579 39.6298152,75.4941147 41.3760473,73.7543265 C44.1315185,71.0091872 37.4080797,68.9869804 35.6733458,69.4516166" id="Fill-217"></path>
                    <path d="M57.9602822,66.9566461 C55.653609,66.9777996 50.7839655,70.2436136 50.4390216,72.6547492 C50.2342807,74.0876251 51.1841746,75.4640915 52.7286331,75.4833895 C54.8316781,75.5089964 55.5000533,72.7746195 57.3230632,72.2027309 C59.2896144,71.5859374 58.9977102,73.0061954 60.6960953,73.742488 C61.939006,74.2817184 63.493479,74.0560803 63.9252152,72.5278278 C64.7397279,69.6453759 60.3303806,66.91137 57.9602822,66.9566461" id="eye"></path>
                    <path d="M40.3037168,80.7630231 C36.6143008,82.9251404 42.6849424,87.5592562 44.7894711,88.1389382 C47.966664,89.0132857 54.3611079,87.3811209 55.1140499,83.4999979 C55.4137431,81.9554163 54.4475293,80.5563119 52.7428388,80.8327928 C51.3393252,81.0606575 50.4391329,82.8212282 49.1391024,83.4517529 C47.3843394,84.3027201 45.8243028,84.2448262 44.333255,82.9637364 C43.1185332,81.9201604 42.4679616,79.5008602 40.3037168,80.7630231" id="Fill-221"></path>
                    <path d="M42.9777368,112.708288 C39.6814826,113.41118 36.330705,112.939493 33.0185017,113.600449 C29.6410188,114.274765 27.6225407,115.550659 24.4846639,114.265116 C24.3370428,114.202769 24.1897925,114.140421 24.0425423,114.078074 C21.6138405,113.032271 19.0683029,112.72239 16.5261035,114.389811 C15.021703,115.376235 10.45472,118.78864 11.0051466,120.870967 C12.1979849,125.385213 17.3369071,118.306561 18.647323,117.616658 C21.1461263,116.301054 22.8593476,117.981835 25.4319615,118.45612 C28.5134603,119.024298 30.9929764,117.395844 33.8956978,116.747506 C37.2906134,115.988946 41.109847,115.724712 44.5637369,115.318712 C45.9283053,115.15839 51.0969001,116.237594 51.5635016,114.53937 C52.3650325,111.622033 44.2733164,112.433291 42.9777368,112.708288" id="Fill-223"></path>
                    <path d="M66.7594672,121.799869 C66.9749644,121.963159 66.8021215,121.832156 66.7594672,121.799869 M75.9913527,112.531637 C78.8132164,112.245507 87.8418447,110.229609 89.6956399,113.145461 C90.9029436,115.044829 88.9868359,122.054825 87.1590041,122.961459 C85.6979998,123.685505 82.2949243,122.885009 80.6918624,122.828229 C77.709025,122.723203 74.7198821,122.676443 71.7403828,122.490514 C70.7411583,122.428167 67.5257619,122.611869 66.7424054,121.727501 C65.8173623,120.683183 65.8585331,115.116083 65.6408104,113.735535 C68.2353078,114.575368 73.2785359,112.807375 75.9913527,112.531637 M82.0171146,109.672936 C78.4029928,109.829547 74.7896127,110.101203 71.2025671,110.58588 C69.2030052,110.856052 67.1771089,111.574531 65.3303609,111.914843 C64.7350545,112.024693 63.7688407,111.720379 63.0388949,112.072938 C60.9058063,113.103154 62.7736961,120.070843 63.2881447,121.932357 C64.0781775,124.791799 66.0666121,125.254951 68.8524977,125.524381 C72.5222557,125.879909 76.2673079,125.768204 79.948564,125.722928 C83.4970352,125.679507 88.2817409,126.4659 90.2727719,122.905421 C91.5598206,120.603393 92.940338,115.242262 91.8402266,112.676743 C90.3929459,109.301079 84.9891957,109.548242 82.0171146,109.672936" id="Fill-225"></path>
                    <path d="M122.488677,123.714897 C122.295434,123.963173 122.295434,123.963173 122.488677,123.714897 M123.280565,122.760389 C123.220848,122.850941 122.94341,123.143751 123.280565,122.760389 M114.661789,122.49801 C116.254836,122.198149 117.848625,121.901628 119.443527,121.610674 C117.933192,123.724917 116.342741,122.850941 113.762709,122.666868 C114.062403,122.610458 114.362096,122.55442 114.661789,122.49801 M107.061154,121.749842 C107.465072,121.614756 107.86862,121.47967 108.272538,121.344584 C108.260298,121.651868 108.326319,121.939853 108.470602,122.207798 C107.779231,122.133204 107.088601,122.053043 106.398714,121.968058 C106.619403,121.895319 106.840464,121.822581 107.061154,121.749842 M103.539017,119.149067 C103.516392,118.594249 104.350563,118.975014 104.828662,118.937902 C103.906958,119.74916 103.477076,119.819672 103.539017,119.149067 M116.135404,112.85755 C116.256691,112.702795 116.417294,112.710589 116.617213,112.880931 C116.399119,112.95404 115.559014,113.310311 116.135404,112.85755 M124.304269,111.896733 C124.325782,111.896733 124.779031,112.508702 124.304269,111.896733 M124.075048,111.696331 C124.193739,111.786883 124.193739,111.786883 124.075048,111.696331 M123.055424,111.577203 C124.72562,111.858879 124.59877,113.81911 123.055424,111.577203 M103.432567,111.443601 C103.093187,111.725278 103.209281,111.452137 103.432567,111.443601 M109.819964,107.270411 C106.984376,107.435557 101.779433,107.269297 99.4111888,108.780107 C96.3207882,110.752214 97.9468463,117.540653 98.2235432,120.516626 C98.6322832,124.915455 100.701947,126.167969 104.844612,126.629636 C109.788436,127.180742 114.868014,127.283541 119.837431,127.152909 C124.3128,127.035265 126.861676,125.495879 127.681381,120.783829 C127.932485,119.342047 128.569704,117.111644 128.549675,115.730724 C128.535952,114.772876 128.058594,114.336073 127.877962,113.521475 C126.850178,108.88402 125.131393,108.334027 120.378214,108.131769 C116.879815,107.982952 113.252712,107.090791 109.819964,107.270411" id="quare"></path>
                </g>
                <g id="Server" transform="translate(380.500000, 417.500000) scale(-1, 1) translate(-380.500000, -417.500000) translate(317.000000, 362.000000)" fill="#CFB5D2">
                    <path d="M106.914844,21.786939 C110.195257,21.786939 112.854557,19.1266631 112.854557,15.8450465 C112.854557,12.56343 110.195257,9.90315409 106.914844,9.90315409 C103.634431,9.90315409 100.97513,12.56343 100.97513,15.8450465 C100.97513,19.1266631 103.634431,21.786939 106.914844,21.786939 Z M106.914844,89.1283868 C103.634431,89.1283868 100.97513,91.7886627 100.97513,95.0702793 C100.97513,98.3518958 103.634431,101.012172 106.914844,101.012172 C110.195257,101.012172 112.854557,98.3518958 112.854557,95.0702793 C112.854557,91.7886627 110.195257,89.1283868 106.914844,89.1283868 Z M118.794271,39.6126164 L7.91961806,39.6126164 C3.54573378,39.6126164 -7.03437308e-13,43.1596508 -7.03437308e-13,47.5351396 L-7.03437308e-13,63.3801862 C-7.03437308e-13,67.755675 3.54573378,71.3027094 7.91961806,71.3027094 L118.794271,71.3027094 C123.168155,71.3027094 126.713889,67.755675 126.713889,63.3801862 L126.713889,47.5351396 C126.713889,43.1596508 123.168155,39.6126164 118.794271,39.6126164 Z M91.0756076,61.3995554 C87.7951944,61.3995554 85.1358941,58.7392795 85.1358941,55.4576629 C85.1358941,52.1760463 87.7951944,49.5157704 91.0756076,49.5157704 C94.3560208,49.5157704 97.0153212,52.1760463 97.0153212,55.4576629 C97.0153212,58.7392795 94.3560208,61.3995554 91.0756076,61.3995554 Z M106.914844,61.3995554 C103.634431,61.3995554 100.97513,58.7392795 100.97513,55.4576629 C100.97513,52.1760463 103.634431,49.5157704 106.914844,49.5157704 C110.195257,49.5157704 112.854557,52.1760463 112.854557,55.4576629 C112.854557,58.7392795 110.195257,61.3995554 106.914844,61.3995554 Z" id="Shape" transform="translate(63.356944, 55.457663) scale(-1, 1) translate(-63.356944, -55.457663) "></path>
                    <path d="M112.854557,55.4576629 C112.854557,52.1760463 110.195257,49.5157704 106.914844,49.5157704 C103.634431,49.5157704 100.97513,52.1760463 100.97513,55.4576629 C100.97513,58.7392795 103.634431,61.3995554 106.914844,61.3995554 C110.195257,61.3995554 112.854557,58.7392795 112.854557,55.4576629 Z M118.794271,-2.13162821e-14 L7.91961806,-2.13162821e-14 C3.54573378,-2.13162821e-14 -7.03437308e-13,3.54703449 -7.03437308e-13,7.92252327 L-7.03437308e-13,23.7675698 C-7.03437308e-13,28.1430586 3.54573378,31.6900931 7.91961806,31.6900931 L118.794271,31.6900931 C123.168155,31.6900931 126.713889,28.1430586 126.713889,23.7675698 L126.713889,7.92252327 C126.713889,3.54703449 123.168155,-2.13162821e-14 118.794271,-2.13162821e-14 Z M91.0756076,21.786939 C87.7951944,21.786939 85.1358941,19.1266631 85.1358941,15.8450465 C85.1358941,12.56343 87.7951944,9.90315409 91.0756076,9.90315409 C94.3560208,9.90315409 97.0153212,12.56343 97.0153212,15.8450465 C97.0153212,19.1266631 94.3560208,21.786939 91.0756076,21.786939 L91.0756076,21.786939 Z M106.914844,21.786939 C103.634431,21.786939 100.97513,19.1266631 100.97513,15.8450465 C100.97513,12.56343 103.634431,9.90315409 106.914844,9.90315409 C110.195257,9.90315409 112.854557,12.56343 112.854557,15.8450465 C112.854557,19.1266631 110.195257,21.786939 106.914844,21.786939 L106.914844,21.786939 Z M118.794271,79.2252327 L7.91961806,79.2252327 C3.54573378,79.2252327 -7.03437308e-13,82.7722672 -7.03437308e-13,87.147756 L-7.03437308e-13,102.992803 C-7.03437308e-13,107.368291 3.54573378,110.915326 7.91961806,110.915326 L118.794271,110.915326 C123.168155,110.915326 126.713889,107.368291 126.713889,102.992803 L126.713889,87.147756 C126.713889,82.7722672 123.168155,79.2252327 118.794271,79.2252327 Z M91.0756076,101.012172 C87.7951944,101.012172 85.1358941,98.3518958 85.1358941,95.0702793 C85.1358941,91.7886627 87.7951944,89.1283868 91.0756076,89.1283868 C94.3560208,89.1283868 97.0153212,91.7886627 97.0153212,95.0702793 C97.0153212,98.3518958 94.3560208,101.012172 91.0756076,101.012172 Z M106.914844,101.012172 C103.634431,101.012172 100.97513,98.3518958 100.97513,95.0702793 C100.97513,91.7886627 103.634431,89.1283868 106.914844,89.1283868 C110.195257,89.1283868 112.854557,91.7886627 112.854557,95.0702793 C112.854557,98.3518958 110.195257,101.012172 106.914844,101.012172 Z" id="Shape" transform="translate(63.356944, 55.457663) scale(-1, 1) translate(-63.356944, -55.457663) "></path>
                </g>
                <g id="desktop" transform="translate(32.000000, 299.000000)">
                    <rect id="Rectangle" fill="#FFFFFF" x="13" y="22.1" width="162.5" height="104"></rect>
                    <path d="M178.75,0 L16.25,0 C7.27537282,0 0,7.27537282 0,16.25 L0,124.583333 C0,133.557961 7.27537282,140.833333 16.25,140.833333 L178.75,140.833333 C187.724627,140.833333 195,133.557961 195,124.583333 L195,16.25 C195,7.27537282 187.724627,0 178.75,0 Z M173.333333,119.166667 L21.6666667,119.166667 L21.6666667,21.6666667 L173.333333,21.6666667 L173.333333,119.166667 Z" id="Shape" fill="#BE9CC2"></path>
                    <path d="M143.541667,157.083333 L119.166667,157.083333 L113.75,140.833333 L81.25,140.833333 L75.8333333,157.083333 L51.4583333,157.083333 C46.9710197,157.083333 43.3333333,160.72102 43.3333333,165.208333 C43.3333333,169.695647 46.9710197,173.333333 51.4583333,173.333333 L143.541667,173.333333 C148.02898,173.333333 151.666667,169.695647 151.666667,165.208333 C151.666667,160.72102 148.02898,157.083333 143.541667,157.083333 L143.541667,157.083333 Z" id="Shape" fill="#BE9CC2"></path>
                </g>
                <g id="Icon/Card/Purple/Safe" transform="translate(95.000000, 334.000000)">
                    <g id="shield-check" transform="translate(0.130000, 0.000000)">
                        <path d="M64.0554687,12.0390156 L36.7554687,0.664015625 C35.0759535,-0.0327151138 33.1882652,-0.0327151138 31.50875,0.664015625 L4.20875,12.0390156 C1.66093732,13.0964549 0,15.5836504 0,18.3421875 C0,46.5664062 16.2804687,66.0731094 31.4945312,72.4146719 C33.1740465,73.1114026 35.0617348,73.1114026 36.74125,72.4146719 C48.9267187,67.3371562 68.2500022,49.8040156 68.2500022,18.3421875 C68.252201,15.5871014 66.5977054,13.1008712 64.0554687,12.0390156 Z M57.3442187,28.27825 L31.1817187,54.44075 C30.2918008,55.3219345 28.8581992,55.3219345 27.9682812,54.44075 L13.1807813,39.65325 C12.2994302,38.7628465 12.2994302,37.3287942 13.1807813,36.4383906 L16.3942188,33.2249531 C17.2844538,32.3445399 18.7174212,32.3445399 19.6076562,33.2249531 L29.575,43.1922969 L50.9173437,21.8499531 C51.8075788,20.9695399 53.2405462,20.9695399 54.1307812,21.8499531 L57.3442188,25.0633906 C57.7739715,25.4878756 58.0158519,26.0667715 58.0158519,26.6708203 C58.0158519,27.2748691 57.7739715,27.853765 57.3442187,28.27825 Z" id="Shape" fill="#87189D" fill-rule="nonzero"></path>
                        <path d="M57.3442187,28.27825 L31.1817187,54.44075 C30.2918008,55.3219345 28.8581992,55.3219345 27.9682812,54.44075 L13.1807813,39.65325 C12.2994302,38.7628465 12.2994302,37.3287942 13.1807813,36.4383906 L16.3942188,33.2249531 C17.2844538,32.3445399 18.7174212,32.3445399 19.6076562,33.2249531 L29.575,43.1922969 L50.9173437,21.8499531 C51.8075788,20.9695399 53.2405462,20.9695399 54.1307812,21.8499531 L57.3442188,25.0633906 C57.7739715,25.4878756 58.0158519,26.0667715 58.0158519,26.6708203 C58.0158519,27.2748691 57.7739715,27.853765 57.3442187,28.27825 Z" id="Path" fill="#FFFFFF"></path>
                    </g>
                </g>
                <g id="Partner-2" transform="translate(231.000000, 102.000000)">
                    <g id="Head/Front/Bald-Glasses" transform="translate(128.000000, 52.000000) scale(-1, 1) translate(-128.000000, -52.000000) translate(60.000000, 0.000000)">
                        <g id="Head" stroke-width="1" transform="translate(54.000000, 31.000000)" fill="#BE9CC2">
                            <path d="M38.1433414,9.13393292 C43.9381521,19.9350547 43.249578,47.3329958 35.7603014,49.2634576 C32.773664,50.0333035 26.4113241,48.1475566 19.935865,44.2446031 L24,73 L0,73 L8.26160177,34.4893378 C3.65406109,29.0807313 0.535660132,22.452516 1.05677633,15.0254539 C2.55833022,-6.37502057 32.3485306,-1.66718886 38.1433414,9.13393292 Z"></path>
                        </g>
                        <path d="M91.0876728,52.2658622 C92.4431243,48.1990508 94.4066456,45.6853454 97.3403908,46.3626538 C100.837382,47.1699979 101.107823,51.448087 99.91903,56.9725447 L99.91903,56.9725447 L99.7783108,57.60316 C98.4329828,63.4304159 96.2885626,67.4751561 92.6596092,66.6373462 C89.2312239,65.845841 88.9040304,61.7184376 90.0127009,56.3511462 C79.748799,52.7837219 73.6296833,51 71.6542969,51 C70.5694908,51 69.4096582,51.4246691 68.1747991,52.2740073 C67.6319491,52.6473313 66.8892348,52.509949 66.5158773,51.9671219 C66.294742,51.6456115 66.2448327,51.2362721 66.3822368,50.8710463 L66.6020499,50.2867741 C67.510668,47.8716297 70.1079229,46.5446134 72.5974079,47.2235639 Z M96.6871329,49.1922245 C95.6108735,48.9437504 93.9830376,52.0141249 93.0512599,56.0500979 L93.0512599,56.0500979 L92.9849516,56.3443701 C92.1257661,60.2535784 92.2628579,63.5653618 93.3128671,63.8077755 C94.3891265,64.0562496 96.0169624,60.9858751 96.9487401,56.9499021 C97.8805179,52.9139292 97.7633924,49.4406986 96.6871329,49.1922245 Z" id="Combined-Shape" fill="#87189D"></path>
                        <path d="M75.135144,48.3866805 C76.0537047,61.185356 78.4839205,67.5846937 82.4257914,67.5846937 C88.3385979,67.5846937 93.355194,63.8310443 95.9495915,63.8310443 C97.8408192,63.8310443 97.4185661,66.1977405 96.1649615,67.9524776 C95.1306973,69.4001921 90.0939174,70.7956158 90.0939174,73.0400595 C90.0939174,75.2845031 94.0733913,73.5481008 94.0733913,74.8792364 C94.0733913,77.0810973 94.7727779,81.2209894 90.9512241,81.2209894 C87.0836843,81.2209894 75.9947625,79.8115837 74.0944216,74.0714721 C72.8275277,70.2447311 72.0231648,62.1796178 71.6813329,49.8761321 L75.135144,48.3866805 Z" id="Beard" fill="#87189D"></path>
                    </g>
                    <g id="Bottom/Sitting/Skinny-Jeans-1" transform="translate(150.000000, 330.500000) scale(-1, 1) translate(-150.000000, -330.500000) translate(0.000000, 211.000000)">
                        <path d="M257.954028,20.756908 L258.24189,20.5887017 C266.50855,15.9575335 280.00938,22.2466943 280.000005,29.2384154 C279.971611,50.4029106 260.656682,150.1511 259.648224,156.456711 C258.639766,162.762321 247.83665,164.42787 247.20755,156.477375 C246.206544,143.826795 244.3468,100.033121 246.20755,79.7626522 C246.975689,71.3947628 247.802939,63.4254961 248.617343,56.3158982 C238.483775,74.6174738 222.808496,100.823961 201.593128,134.933778 L190.076573,129.672175 C199.120166,99.8760987 206.535776,78.8408618 212.323403,66.5664641 C222.233227,45.5497154 231.525307,27.551672 235.436043,21.2120072 C241.587899,11.2392801 252.296386,14.7194928 257.954028,20.756908 Z" id="Skin" fill="#BE9CC2"></path>
                        <path d="M208.819223,123.340112 L213.936922,21.8299349 C217.625361,4.27739957 248.84365,12.4235349 248.830816,21.8299349 C248.801666,43.1853748 235.973522,116.956762 235.964839,123.319261 L208.819223,123.340112 Z" id="LegLower" fill="#87189D" transform="translate(228.825019, 67.419630) rotate(20.000000) translate(-228.825019, -67.419630) "></path>
                        <g id="Accessories/Shoe/Flat-Simple" transform="translate(215.500000, 133.000000) rotate(30.000000) translate(-215.500000, -133.000000) translate(185.000000, 113.000000)" fill="#9963A0">
                            <path d="M0,37 L0.99242267,21 C6.8029179,22.6994251 14.0806841,22.0327584 22.8257214,19 C32.2287535,25.660617 44.0659431,30.2086712 58.3372903,32.6441626 C59.4261013,32.829999 60.1581292,33.8632891 59.9723163,34.9521041 C59.9602834,35.0226139 59.9444765,35.0924273 59.9249637,35.1612435 L58.5529375,40 L58.5529375,40 L22.8257214,40 L1.98484534,40 L0,37 Z" id="Shoe"></path>
                        </g>
                        <g id="Accessories/Shoe/Flat-Simple" transform="translate(242.000000, 126.000000)" fill="#9963A0">
                            <path d="M0,37 L0.99242267,21 C6.8029179,22.6994251 14.0806841,22.0327584 22.8257214,19 C32.2287535,25.660617 44.0659431,30.2086712 58.3372903,32.6441626 C59.4261013,32.829999 60.1581292,33.8632891 59.9723163,34.9521041 C59.9602834,35.0226139 59.9444765,35.0924273 59.9249637,35.1612435 L58.5529375,40 L58.5529375,40 L22.8257214,40 L1.98484534,40 L0,37 Z" id="Shoe"></path>
                        </g>
                        <path d="M282.770373,36.4330278 C282.770373,63 270.1536,124.970293 270.145616,130.820112 L243,130.840963 C246.973277,75.5454811 248.382172,47.5998928 247.226683,47.0041979 C245.49345,46.1106556 176.175838,53.9250306 155.386358,53.9250306 C125.407825,53.9250306 113.006307,35.0203971 112,-4.40536496e-13 L171.386358,-4.40536496e-13 C183.477954,1.29386693 246.548825,14.0152568 269.972097,18.3884129 C280,20.2606358 282.770373,29.1145109 282.770373,36.4330278 Z" id="Leg-and-Butt" fill="#87189D"></path>
                    </g>
                    <g id="Body/Hoodie" transform="translate(130.000000, 182.500000) scale(-1, 1) translate(-130.000000, -182.500000) translate(2.000000, 89.000000)">
                        <path d="M68.3079281,93.0198914 L89.2053198,93.1020711 C76.3021447,134.755739 69.3363474,156.856914 68.3079281,159.405597 C65.9939846,165.140133 70.8906002,173.873732 72.9845874,178.567103 C66.1645409,181.61887 66.8912241,170.316929 58.2879189,174.319492 C50.4352209,177.972846 44.4616931,184.59248 35.3890352,178.994371 C34.2736052,178.306117 33.0512757,175.714714 36.0045784,173.68967 C43.3623323,168.644547 53.9653015,159.814672 55.3979297,156.908251 C57.3515741,152.944826 61.6549068,131.648706 68.3079281,93.0198914 L68.3079281,93.0198914 Z M190.781205,92.2114854 L222.679476,115.635084 C231.330944,117.969562 238.558965,120.874047 244.363541,124.34854 C245.734683,125.597945 247.391836,128.128197 241.70538,127.690906 C236.018925,127.253615 230.01796,127.049392 229.233339,128.988954 C228.448719,130.928516 231.889854,133.24802 230.303794,135.864997 C229.246421,137.609648 224.250967,133.234999 215.31743,122.74105 L183.729774,109.642447 L190.781205,92.2114854 Z" id="Skin" fill="#BE9CC2"></path>
                        <path d="M122.731734,9.58031077 L131.216685,7.34914009 C165.5935,32.1628362 183.361709,84.0563407 224.996623,108.72736 L216.58973,121.240539 C147.889238,118.771641 125.383314,55.5469019 122.731734,9.58031077 Z" id="Coat-Back" fill="#D58AD5" transform="translate(173.864178, 64.294840) rotate(5.000000) translate(-173.864178, -64.294840) "></path>
                        <path d="M90,114 C124.671756,114 150.175573,114 166.511451,114 C170.007634,114 169.348845,108.951637 168.84345,106.404206 C163.010588,77.0037663 140.241304,45.3115155 140.241304,3.4607303 L118.1718,0 C99.917485,29.3584068 93.6048263,65.5045499 90,114 Z" id="Shirt" fill="#FFFFFF"></path>
                        <path d="M116.510031,-7.10542736e-15 C117.255457,-6.66133815e-15 117.93832,0.0466286213 118.558619,0.139885864 L125.471587,0.534739944 C145.293986,67.7151944 150.760885,112.536948 141.872285,135 L141.872285,135 L81.6511486,135.001552 C78.0833907,143.320741 74.6693386,150.320224 71.4089926,156 L71.4089926,156 L55,156 C53.4556773,106.066899 65.3273884,63.686084 90.6151334,28.8575562 C87.4099906,27.9369844 84.8714148,25.7879767 83,22.4111902 C74.933557,7.85607578 77.8467271,-0.157592785 86.4671964,-2.7917309 C95.0876658,-5.42586901 102.775319,-2.04281037e-14 116.510031,-7.10542736e-15 Z" id="Coat-Front" fill="#D58AD5"></path>
                        <path d="M104,135 L81.6515228,135.000679 C85.8135041,125.295819 90.1846546,113.79505 94.7649742,100.498371 C96.6589721,116.343356 99.7372842,127.844605 104,135 Z" id="Shade" fill-opacity="0.1" fill="#000000"></path>
                    </g>
                </g>
            </g>
        </g>
    </g>
</svg>